<mxfile host="Electron" agent="Mozilla/5.0 (Windows NT 10.0; Win64; x64) AppleWebKit/537.36 (KHTML, like Gecko) draw.io/26.0.4 Chrome/128.0.6613.186 Electron/32.2.5 Safari/537.36" version="26.0.4" pages="3">
  <diagram name="RenderPassBuilder" id="fPlWpsaii-KsTuSQLBnO">
    <mxGraphModel dx="3640" dy="1393" grid="1" gridSize="10" guides="1" tooltips="1" connect="1" arrows="1" fold="1" page="1" pageScale="1" pageWidth="850" pageHeight="1100" math="0" shadow="0">
      <root>
        <mxCell id="0" />
        <mxCell id="1" parent="0" />
        <mxCell id="ltjWNyK10us-_BbBSjaA-2" value="RenderPassBuilder" style="swimlane;fontStyle=1;align=center;verticalAlign=top;childLayout=stackLayout;horizontal=1;startSize=26;horizontalStack=0;resizeParent=1;resizeParentMax=0;resizeLast=0;collapsible=1;marginBottom=0;whiteSpace=wrap;html=1;" vertex="1" parent="1">
          <mxGeometry x="-110" y="250" width="560" height="322" as="geometry" />
        </mxCell>
        <mxCell id="ltjWNyK10us-_BbBSjaA-3" value="+ add_attachment_description(AttachmentId, AttachmentDescription): void" style="text;strokeColor=none;fillColor=none;align=left;verticalAlign=top;spacingLeft=4;spacingRight=4;overflow=hidden;rotatable=0;points=[[0,0.5],[1,0.5]];portConstraint=eastwest;whiteSpace=wrap;html=1;" vertex="1" parent="ltjWNyK10us-_BbBSjaA-2">
          <mxGeometry y="26" width="560" height="26" as="geometry" />
        </mxCell>
        <mxCell id="ltjWNyK10us-_BbBSjaA-6" value="+ add_subpass_description(SubpassId, SubpassDescription): void" style="text;strokeColor=none;fillColor=none;align=left;verticalAlign=top;spacingLeft=4;spacingRight=4;overflow=hidden;rotatable=0;points=[[0,0.5],[1,0.5]];portConstraint=eastwest;whiteSpace=wrap;html=1;" vertex="1" parent="ltjWNyK10us-_BbBSjaA-2">
          <mxGeometry y="52" width="560" height="26" as="geometry" />
        </mxCell>
        <mxCell id="ltjWNyK10us-_BbBSjaA-7" value="+ add_subpass_dependency(SubpassDependency): void" style="text;strokeColor=none;fillColor=none;align=left;verticalAlign=top;spacingLeft=4;spacingRight=4;overflow=hidden;rotatable=0;points=[[0,0.5],[1,0.5]];portConstraint=eastwest;whiteSpace=wrap;html=1;" vertex="1" parent="ltjWNyK10us-_BbBSjaA-2">
          <mxGeometry y="78" width="560" height="26" as="geometry" />
        </mxCell>
        <mxCell id="ltjWNyK10us-_BbBSjaA-5" value="+ build(): RenderPass" style="text;strokeColor=none;fillColor=none;align=left;verticalAlign=top;spacingLeft=4;spacingRight=4;overflow=hidden;rotatable=0;points=[[0,0.5],[1,0.5]];portConstraint=eastwest;whiteSpace=wrap;html=1;" vertex="1" parent="ltjWNyK10us-_BbBSjaA-2">
          <mxGeometry y="104" width="560" height="26" as="geometry" />
        </mxCell>
        <mxCell id="ltjWNyK10us-_BbBSjaA-4" value="" style="line;strokeWidth=1;fillColor=none;align=left;verticalAlign=middle;spacingTop=-1;spacingLeft=3;spacingRight=3;rotatable=0;labelPosition=right;points=[];portConstraint=eastwest;strokeColor=inherit;" vertex="1" parent="ltjWNyK10us-_BbBSjaA-2">
          <mxGeometry y="130" width="560" height="8" as="geometry" />
        </mxCell>
        <mxCell id="ltjWNyK10us-_BbBSjaA-18" value="- attachment_map_: std::unordered_map&amp;lt;AttachmentId, uint32_t&amp;gt;" style="text;strokeColor=none;fillColor=none;align=left;verticalAlign=top;spacingLeft=4;spacingRight=4;overflow=hidden;rotatable=0;points=[[0,0.5],[1,0.5]];portConstraint=eastwest;whiteSpace=wrap;html=1;" vertex="1" parent="ltjWNyK10us-_BbBSjaA-2">
          <mxGeometry y="138" width="560" height="32" as="geometry" />
        </mxCell>
        <mxCell id="ltjWNyK10us-_BbBSjaA-74" value="- subpass_map_: std::unordered_map&amp;lt;SubpassId, uint32_t&amp;gt;" style="text;strokeColor=none;fillColor=none;align=left;verticalAlign=top;spacingLeft=4;spacingRight=4;overflow=hidden;rotatable=0;points=[[0,0.5],[1,0.5]];portConstraint=eastwest;whiteSpace=wrap;html=1;" vertex="1" parent="ltjWNyK10us-_BbBSjaA-2">
          <mxGeometry y="170" width="560" height="32" as="geometry" />
        </mxCell>
        <mxCell id="ltjWNyK10us-_BbBSjaA-30" value="- subpass_descriptions_: std::list&amp;lt;VkSubpassDescription2&amp;gt;" style="text;strokeColor=none;fillColor=none;align=left;verticalAlign=top;spacingLeft=4;spacingRight=4;overflow=hidden;rotatable=0;points=[[0,0.5],[1,0.5]];portConstraint=eastwest;whiteSpace=wrap;html=1;" vertex="1" parent="ltjWNyK10us-_BbBSjaA-2">
          <mxGeometry y="202" width="560" height="30" as="geometry" />
        </mxCell>
        <mxCell id="ltjWNyK10us-_BbBSjaA-31" value="- attachment_descriptions_: std::list&amp;lt;VkAttachmentDescription2&amp;gt;" style="text;strokeColor=none;fillColor=none;align=left;verticalAlign=top;spacingLeft=4;spacingRight=4;overflow=hidden;rotatable=0;points=[[0,0.5],[1,0.5]];portConstraint=eastwest;whiteSpace=wrap;html=1;" vertex="1" parent="ltjWNyK10us-_BbBSjaA-2">
          <mxGeometry y="232" width="560" height="30" as="geometry" />
        </mxCell>
        <mxCell id="ltjWNyK10us-_BbBSjaA-77" value="- subpass_dependencies_: std::list&amp;lt;VkSubpassDependency2&amp;gt;" style="text;strokeColor=none;fillColor=none;align=left;verticalAlign=top;spacingLeft=4;spacingRight=4;overflow=hidden;rotatable=0;points=[[0,0.5],[1,0.5]];portConstraint=eastwest;whiteSpace=wrap;html=1;" vertex="1" parent="ltjWNyK10us-_BbBSjaA-2">
          <mxGeometry y="262" width="560" height="30" as="geometry" />
        </mxCell>
        <mxCell id="ltjWNyK10us-_BbBSjaA-32" value="- attachment_references_: std::list&amp;lt;VkAttachmentReference2&amp;gt;" style="text;strokeColor=none;fillColor=none;align=left;verticalAlign=top;spacingLeft=4;spacingRight=4;overflow=hidden;rotatable=0;points=[[0,0.5],[1,0.5]];portConstraint=eastwest;whiteSpace=wrap;html=1;" vertex="1" parent="ltjWNyK10us-_BbBSjaA-2">
          <mxGeometry y="292" width="560" height="30" as="geometry" />
        </mxCell>
        <mxCell id="ltjWNyK10us-_BbBSjaA-9" value="AttachmentDescription" style="swimlane;fontStyle=0;childLayout=stackLayout;horizontal=1;startSize=26;fillColor=none;horizontalStack=0;resizeParent=1;resizeParentMax=0;resizeLast=0;collapsible=1;marginBottom=0;whiteSpace=wrap;html=1;" vertex="1" parent="1">
          <mxGeometry x="605" y="20" width="280" height="208" as="geometry" />
        </mxCell>
        <mxCell id="ltjWNyK10us-_BbBSjaA-10" value="+ flags: VkAttachmentDescriptionFlags" style="text;strokeColor=none;fillColor=none;align=left;verticalAlign=top;spacingLeft=4;spacingRight=4;overflow=hidden;rotatable=0;points=[[0,0.5],[1,0.5]];portConstraint=eastwest;whiteSpace=wrap;html=1;" vertex="1" parent="ltjWNyK10us-_BbBSjaA-9">
          <mxGeometry y="26" width="280" height="26" as="geometry" />
        </mxCell>
        <mxCell id="ltjWNyK10us-_BbBSjaA-11" value="+ load_op: VkAttachmentLoadOp" style="text;strokeColor=none;fillColor=none;align=left;verticalAlign=top;spacingLeft=4;spacingRight=4;overflow=hidden;rotatable=0;points=[[0,0.5],[1,0.5]];portConstraint=eastwest;whiteSpace=wrap;html=1;" vertex="1" parent="ltjWNyK10us-_BbBSjaA-9">
          <mxGeometry y="52" width="280" height="26" as="geometry" />
        </mxCell>
        <mxCell id="ltjWNyK10us-_BbBSjaA-12" value="+ store_op: VkAttachmentStoreOp" style="text;strokeColor=none;fillColor=none;align=left;verticalAlign=top;spacingLeft=4;spacingRight=4;overflow=hidden;rotatable=0;points=[[0,0.5],[1,0.5]];portConstraint=eastwest;whiteSpace=wrap;html=1;" vertex="1" parent="ltjWNyK10us-_BbBSjaA-9">
          <mxGeometry y="78" width="280" height="26" as="geometry" />
        </mxCell>
        <mxCell id="ltjWNyK10us-_BbBSjaA-14" value="+ stencil_load_op: VkAttachmentLoadOp" style="text;strokeColor=none;fillColor=none;align=left;verticalAlign=top;spacingLeft=4;spacingRight=4;overflow=hidden;rotatable=0;points=[[0,0.5],[1,0.5]];portConstraint=eastwest;whiteSpace=wrap;html=1;" vertex="1" parent="ltjWNyK10us-_BbBSjaA-9">
          <mxGeometry y="104" width="280" height="26" as="geometry" />
        </mxCell>
        <mxCell id="ltjWNyK10us-_BbBSjaA-15" value="+ stencil_store_op: VkAttachmentStoreOp" style="text;strokeColor=none;fillColor=none;align=left;verticalAlign=top;spacingLeft=4;spacingRight=4;overflow=hidden;rotatable=0;points=[[0,0.5],[1,0.5]];portConstraint=eastwest;whiteSpace=wrap;html=1;" vertex="1" parent="ltjWNyK10us-_BbBSjaA-9">
          <mxGeometry y="130" width="280" height="26" as="geometry" />
        </mxCell>
        <mxCell id="ltjWNyK10us-_BbBSjaA-16" value="+ initial_layout: VkImageLayout" style="text;strokeColor=none;fillColor=none;align=left;verticalAlign=top;spacingLeft=4;spacingRight=4;overflow=hidden;rotatable=0;points=[[0,0.5],[1,0.5]];portConstraint=eastwest;whiteSpace=wrap;html=1;" vertex="1" parent="ltjWNyK10us-_BbBSjaA-9">
          <mxGeometry y="156" width="280" height="26" as="geometry" />
        </mxCell>
        <mxCell id="ltjWNyK10us-_BbBSjaA-17" value="+ final_layout: VkImageLayout" style="text;strokeColor=none;fillColor=none;align=left;verticalAlign=top;spacingLeft=4;spacingRight=4;overflow=hidden;rotatable=0;points=[[0,0.5],[1,0.5]];portConstraint=eastwest;whiteSpace=wrap;html=1;" vertex="1" parent="ltjWNyK10us-_BbBSjaA-9">
          <mxGeometry y="182" width="280" height="26" as="geometry" />
        </mxCell>
        <mxCell id="ltjWNyK10us-_BbBSjaA-13" value="" style="endArrow=open;endFill=1;endSize=12;html=1;rounded=0;edgeStyle=orthogonalEdgeStyle;" edge="1" parent="1" source="ltjWNyK10us-_BbBSjaA-3" target="ltjWNyK10us-_BbBSjaA-9">
          <mxGeometry width="160" relative="1" as="geometry">
            <mxPoint x="480" y="340" as="sourcePoint" />
            <mxPoint x="640" y="340" as="targetPoint" />
          </mxGeometry>
        </mxCell>
        <mxCell id="ltjWNyK10us-_BbBSjaA-19" value="SubpassDescription" style="swimlane;fontStyle=0;childLayout=stackLayout;horizontal=1;startSize=26;fillColor=none;horizontalStack=0;resizeParent=1;resizeParentMax=0;resizeLast=0;collapsible=1;marginBottom=0;whiteSpace=wrap;html=1;" vertex="1" parent="1">
          <mxGeometry x="605" y="302" width="450" height="108" as="geometry" />
        </mxCell>
        <mxCell id="ltjWNyK10us-_BbBSjaA-20" value="+ flags: VkSubpassDescriptionFlags" style="text;strokeColor=none;fillColor=none;align=left;verticalAlign=top;spacingLeft=4;spacingRight=4;overflow=hidden;rotatable=0;points=[[0,0.5],[1,0.5]];portConstraint=eastwest;whiteSpace=wrap;html=1;" vertex="1" parent="ltjWNyK10us-_BbBSjaA-19">
          <mxGeometry y="26" width="450" height="26" as="geometry" />
        </mxCell>
        <mxCell id="ltjWNyK10us-_BbBSjaA-21" value="+ color_attachments: std::vector&amp;lt;AttachmentId, AttachmentReference&amp;gt;" style="text;strokeColor=none;fillColor=none;align=left;verticalAlign=top;spacingLeft=4;spacingRight=4;overflow=hidden;rotatable=0;points=[[0,0.5],[1,0.5]];portConstraint=eastwest;whiteSpace=wrap;html=1;" vertex="1" parent="ltjWNyK10us-_BbBSjaA-19">
          <mxGeometry y="52" width="450" height="28" as="geometry" />
        </mxCell>
        <mxCell id="ltjWNyK10us-_BbBSjaA-48" value="+ input_attachments: std::vector&amp;lt;AttachmentId, AttachmentReference&amp;gt;" style="text;strokeColor=none;fillColor=none;align=left;verticalAlign=top;spacingLeft=4;spacingRight=4;overflow=hidden;rotatable=0;points=[[0,0.5],[1,0.5]];portConstraint=eastwest;whiteSpace=wrap;html=1;" vertex="1" parent="ltjWNyK10us-_BbBSjaA-19">
          <mxGeometry y="80" width="450" height="28" as="geometry" />
        </mxCell>
        <mxCell id="ltjWNyK10us-_BbBSjaA-23" value="" style="endArrow=open;endFill=1;endSize=12;html=1;rounded=0;edgeStyle=orthogonalEdgeStyle;" edge="1" parent="1" source="ltjWNyK10us-_BbBSjaA-6" target="ltjWNyK10us-_BbBSjaA-19">
          <mxGeometry width="160" relative="1" as="geometry">
            <mxPoint x="620" y="400" as="sourcePoint" />
            <mxPoint x="780" y="400" as="targetPoint" />
          </mxGeometry>
        </mxCell>
        <mxCell id="ltjWNyK10us-_BbBSjaA-29" value="AttachmentId = std::string" style="text;strokeColor=none;fillColor=none;align=left;verticalAlign=top;spacingLeft=4;spacingRight=4;overflow=hidden;rotatable=0;points=[[0,0.5],[1,0.5]];portConstraint=eastwest;whiteSpace=wrap;html=1;" vertex="1" parent="1">
          <mxGeometry x="-110" y="176" width="210" height="26" as="geometry" />
        </mxCell>
        <mxCell id="ltjWNyK10us-_BbBSjaA-41" style="edgeStyle=orthogonalEdgeStyle;rounded=0;orthogonalLoop=1;jettySize=auto;html=1;exitX=1;exitY=0.5;exitDx=0;exitDy=0;" edge="1" parent="1" source="ltjWNyK10us-_BbBSjaA-39" target="ltjWNyK10us-_BbBSjaA-42">
          <mxGeometry relative="1" as="geometry">
            <mxPoint x="200" y="750" as="targetPoint" />
          </mxGeometry>
        </mxCell>
        <mxCell id="ltjWNyK10us-_BbBSjaA-39" value="add_attachment_description" style="rounded=1;whiteSpace=wrap;html=1;absoluteArcSize=1;arcSize=14;strokeWidth=2;" vertex="1" parent="1">
          <mxGeometry x="-100" y="700" width="180" height="100" as="geometry" />
        </mxCell>
        <mxCell id="ltjWNyK10us-_BbBSjaA-43" style="edgeStyle=orthogonalEdgeStyle;rounded=0;orthogonalLoop=1;jettySize=auto;html=1;" edge="1" parent="1" source="ltjWNyK10us-_BbBSjaA-42" target="ltjWNyK10us-_BbBSjaA-44">
          <mxGeometry relative="1" as="geometry">
            <mxPoint x="560" y="750" as="targetPoint" />
          </mxGeometry>
        </mxCell>
        <mxCell id="ltjWNyK10us-_BbBSjaA-42" value="make VkAttachmentDescription2" style="rounded=1;whiteSpace=wrap;html=1;absoluteArcSize=1;arcSize=14;strokeWidth=2;" vertex="1" parent="1">
          <mxGeometry x="170" y="700" width="210" height="100" as="geometry" />
        </mxCell>
        <mxCell id="ltjWNyK10us-_BbBSjaA-61" value="" style="edgeStyle=orthogonalEdgeStyle;rounded=0;orthogonalLoop=1;jettySize=auto;html=1;" edge="1" parent="1" source="ltjWNyK10us-_BbBSjaA-44" target="ltjWNyK10us-_BbBSjaA-60">
          <mxGeometry relative="1" as="geometry" />
        </mxCell>
        <mxCell id="ltjWNyK10us-_BbBSjaA-44" value="store inside attachment_descriptions_" style="rounded=1;whiteSpace=wrap;html=1;absoluteArcSize=1;arcSize=14;strokeWidth=2;" vertex="1" parent="1">
          <mxGeometry x="510" y="700" width="220" height="100" as="geometry" />
        </mxCell>
        <mxCell id="ltjWNyK10us-_BbBSjaA-46" style="edgeStyle=orthogonalEdgeStyle;rounded=0;orthogonalLoop=1;jettySize=auto;html=1;" edge="1" parent="1" source="ltjWNyK10us-_BbBSjaA-45" target="ltjWNyK10us-_BbBSjaA-47">
          <mxGeometry relative="1" as="geometry">
            <mxPoint x="180" y="890" as="targetPoint" />
          </mxGeometry>
        </mxCell>
        <mxCell id="ltjWNyK10us-_BbBSjaA-45" value="add_subpass_description" style="rounded=1;whiteSpace=wrap;html=1;absoluteArcSize=1;arcSize=14;strokeWidth=2;" vertex="1" parent="1">
          <mxGeometry x="-100" y="830" width="180" height="100" as="geometry" />
        </mxCell>
        <mxCell id="ltjWNyK10us-_BbBSjaA-55" style="edgeStyle=orthogonalEdgeStyle;rounded=0;orthogonalLoop=1;jettySize=auto;html=1;" edge="1" parent="1" source="ltjWNyK10us-_BbBSjaA-47" target="ltjWNyK10us-_BbBSjaA-56">
          <mxGeometry relative="1" as="geometry">
            <mxPoint x="530" y="880" as="targetPoint" />
          </mxGeometry>
        </mxCell>
        <mxCell id="ltjWNyK10us-_BbBSjaA-47" value="for each Identifier in color_attachment_ids, search attachment_map_ for the index of&lt;div&gt;the attachment&lt;/div&gt;&lt;div&gt;(this corresponds to the index of the attachment in attachment_descriptions_)&lt;/div&gt;" style="rounded=1;whiteSpace=wrap;html=1;absoluteArcSize=1;arcSize=14;strokeWidth=2;" vertex="1" parent="1">
          <mxGeometry x="170" y="830" width="240" height="100" as="geometry" />
        </mxCell>
        <mxCell id="ltjWNyK10us-_BbBSjaA-50" value="" style="endArrow=open;endFill=1;endSize=12;html=1;rounded=0;edgeStyle=orthogonalEdgeStyle;" edge="1" parent="1" source="ltjWNyK10us-_BbBSjaA-21" target="ltjWNyK10us-_BbBSjaA-51">
          <mxGeometry width="160" relative="1" as="geometry">
            <mxPoint x="960" y="520" as="sourcePoint" />
            <mxPoint x="1140" y="420" as="targetPoint" />
          </mxGeometry>
        </mxCell>
        <mxCell id="ltjWNyK10us-_BbBSjaA-51" value="AttachmentReference" style="swimlane;fontStyle=0;childLayout=stackLayout;horizontal=1;startSize=26;fillColor=none;horizontalStack=0;resizeParent=1;resizeParentMax=0;resizeLast=0;collapsible=1;marginBottom=0;whiteSpace=wrap;html=1;" vertex="1" parent="1">
          <mxGeometry x="1150" y="382" width="270" height="80" as="geometry" />
        </mxCell>
        <mxCell id="ltjWNyK10us-_BbBSjaA-52" value="+ layout: VkImageLayout" style="text;strokeColor=none;fillColor=none;align=left;verticalAlign=top;spacingLeft=4;spacingRight=4;overflow=hidden;rotatable=0;points=[[0,0.5],[1,0.5]];portConstraint=eastwest;whiteSpace=wrap;html=1;" vertex="1" parent="ltjWNyK10us-_BbBSjaA-51">
          <mxGeometry y="26" width="270" height="26" as="geometry" />
        </mxCell>
        <mxCell id="ltjWNyK10us-_BbBSjaA-53" value="+ aspect_mask: VkImageAspectFlags" style="text;strokeColor=none;fillColor=none;align=left;verticalAlign=top;spacingLeft=4;spacingRight=4;overflow=hidden;rotatable=0;points=[[0,0.5],[1,0.5]];portConstraint=eastwest;whiteSpace=wrap;html=1;" vertex="1" parent="ltjWNyK10us-_BbBSjaA-51">
          <mxGeometry y="52" width="270" height="28" as="geometry" />
        </mxCell>
        <mxCell id="ltjWNyK10us-_BbBSjaA-58" style="edgeStyle=orthogonalEdgeStyle;rounded=0;orthogonalLoop=1;jettySize=auto;html=1;" edge="1" parent="1" source="ltjWNyK10us-_BbBSjaA-56" target="ltjWNyK10us-_BbBSjaA-59">
          <mxGeometry relative="1" as="geometry">
            <mxPoint x="910" y="880" as="targetPoint" />
          </mxGeometry>
        </mxCell>
        <mxCell id="ltjWNyK10us-_BbBSjaA-56" value="make the VkAttachmentReference2&lt;div&gt;and store it in attachment_references_&lt;/div&gt;" style="rounded=1;whiteSpace=wrap;html=1;absoluteArcSize=1;arcSize=14;strokeWidth=2;" vertex="1" parent="1">
          <mxGeometry x="620" y="830" width="200" height="100" as="geometry" />
        </mxCell>
        <mxCell id="ltjWNyK10us-_BbBSjaA-57" value="&lt;span style=&quot;text-align: center;&quot;&gt;with this index + AttachmentReference info,&lt;/span&gt;&lt;div&gt;&lt;span style=&quot;text-align: center;&quot;&gt;it is possible to fully define a VkAttachmentReference2&lt;/span&gt;&lt;/div&gt;" style="text;strokeColor=none;fillColor=none;align=left;verticalAlign=top;spacingLeft=4;spacingRight=4;overflow=hidden;rotatable=0;points=[[0,0.5],[1,0.5]];portConstraint=eastwest;whiteSpace=wrap;html=1;" vertex="1" parent="1">
          <mxGeometry x="435" y="890" width="170" height="80" as="geometry" />
        </mxCell>
        <mxCell id="ltjWNyK10us-_BbBSjaA-59" value="make the VkSubpassDescription2&lt;div&gt;and have the members point to VkAttachmentReference2s in attachment_references_&lt;/div&gt;" style="rounded=1;whiteSpace=wrap;html=1;absoluteArcSize=1;arcSize=14;strokeWidth=2;" vertex="1" parent="1">
          <mxGeometry x="940" y="830" width="190" height="100" as="geometry" />
        </mxCell>
        <mxCell id="ltjWNyK10us-_BbBSjaA-60" value="add entry to attachment_map_" style="whiteSpace=wrap;html=1;rounded=1;arcSize=14;strokeWidth=2;" vertex="1" parent="1">
          <mxGeometry x="870" y="720" width="120" height="60" as="geometry" />
        </mxCell>
        <mxCell id="ltjWNyK10us-_BbBSjaA-62" value="" style="endArrow=open;endFill=1;endSize=12;html=1;rounded=0;edgeStyle=orthogonalEdgeStyle;" edge="1" parent="1" source="ltjWNyK10us-_BbBSjaA-7" target="ltjWNyK10us-_BbBSjaA-63">
          <mxGeometry width="160" relative="1" as="geometry">
            <mxPoint x="540" y="540" as="sourcePoint" />
            <mxPoint x="800" y="550" as="targetPoint" />
            <Array as="points">
              <mxPoint x="490" y="341" />
              <mxPoint x="490" y="550" />
            </Array>
          </mxGeometry>
        </mxCell>
        <mxCell id="ltjWNyK10us-_BbBSjaA-63" value="SubpassDependency" style="swimlane;fontStyle=0;childLayout=stackLayout;horizontal=1;startSize=26;fillColor=none;horizontalStack=0;resizeParent=1;resizeParentMax=0;resizeLast=0;collapsible=1;marginBottom=0;whiteSpace=wrap;html=1;" vertex="1" parent="1">
          <mxGeometry x="605" y="454" width="250" height="182" as="geometry" />
        </mxCell>
        <mxCell id="ltjWNyK10us-_BbBSjaA-64" value="+ dst: SubpassId" style="text;strokeColor=none;fillColor=none;align=left;verticalAlign=top;spacingLeft=4;spacingRight=4;overflow=hidden;rotatable=0;points=[[0,0.5],[1,0.5]];portConstraint=eastwest;whiteSpace=wrap;html=1;" vertex="1" parent="ltjWNyK10us-_BbBSjaA-63">
          <mxGeometry y="26" width="250" height="26" as="geometry" />
        </mxCell>
        <mxCell id="ltjWNyK10us-_BbBSjaA-65" value="+ src: SubpassId" style="text;strokeColor=none;fillColor=none;align=left;verticalAlign=top;spacingLeft=4;spacingRight=4;overflow=hidden;rotatable=0;points=[[0,0.5],[1,0.5]];portConstraint=eastwest;whiteSpace=wrap;html=1;" vertex="1" parent="ltjWNyK10us-_BbBSjaA-63">
          <mxGeometry y="52" width="250" height="26" as="geometry" />
        </mxCell>
        <mxCell id="ltjWNyK10us-_BbBSjaA-66" value="+ src_stage_mask: VkPipelineStageFlags" style="text;strokeColor=none;fillColor=none;align=left;verticalAlign=top;spacingLeft=4;spacingRight=4;overflow=hidden;rotatable=0;points=[[0,0.5],[1,0.5]];portConstraint=eastwest;whiteSpace=wrap;html=1;" vertex="1" parent="ltjWNyK10us-_BbBSjaA-63">
          <mxGeometry y="78" width="250" height="26" as="geometry" />
        </mxCell>
        <mxCell id="ltjWNyK10us-_BbBSjaA-68" value="+ dst_stage_mask: VkPipelineStageFlags" style="text;strokeColor=none;fillColor=none;align=left;verticalAlign=top;spacingLeft=4;spacingRight=4;overflow=hidden;rotatable=0;points=[[0,0.5],[1,0.5]];portConstraint=eastwest;whiteSpace=wrap;html=1;" vertex="1" parent="ltjWNyK10us-_BbBSjaA-63">
          <mxGeometry y="104" width="250" height="26" as="geometry" />
        </mxCell>
        <mxCell id="ltjWNyK10us-_BbBSjaA-69" value="+ src_access_mask: VkAccessFlags" style="text;strokeColor=none;fillColor=none;align=left;verticalAlign=top;spacingLeft=4;spacingRight=4;overflow=hidden;rotatable=0;points=[[0,0.5],[1,0.5]];portConstraint=eastwest;whiteSpace=wrap;html=1;" vertex="1" parent="ltjWNyK10us-_BbBSjaA-63">
          <mxGeometry y="130" width="250" height="26" as="geometry" />
        </mxCell>
        <mxCell id="ltjWNyK10us-_BbBSjaA-70" value="+ dst_access_mask: VkAccessFlags" style="text;strokeColor=none;fillColor=none;align=left;verticalAlign=top;spacingLeft=4;spacingRight=4;overflow=hidden;rotatable=0;points=[[0,0.5],[1,0.5]];portConstraint=eastwest;whiteSpace=wrap;html=1;" vertex="1" parent="ltjWNyK10us-_BbBSjaA-63">
          <mxGeometry y="156" width="250" height="26" as="geometry" />
        </mxCell>
        <mxCell id="ltjWNyK10us-_BbBSjaA-67" value="SubpassId = std::string" style="text;strokeColor=none;fillColor=none;align=left;verticalAlign=top;spacingLeft=4;spacingRight=4;overflow=hidden;rotatable=0;points=[[0,0.5],[1,0.5]];portConstraint=eastwest;whiteSpace=wrap;html=1;" vertex="1" parent="1">
          <mxGeometry x="-110" y="202" width="210" height="26" as="geometry" />
        </mxCell>
        <mxCell id="ltjWNyK10us-_BbBSjaA-73" value="" style="edgeStyle=orthogonalEdgeStyle;rounded=0;orthogonalLoop=1;jettySize=auto;html=1;" edge="1" parent="1" source="ltjWNyK10us-_BbBSjaA-71" target="ltjWNyK10us-_BbBSjaA-72">
          <mxGeometry relative="1" as="geometry" />
        </mxCell>
        <mxCell id="ltjWNyK10us-_BbBSjaA-71" value="add_subpass_dependency" style="rounded=1;whiteSpace=wrap;html=1;absoluteArcSize=1;arcSize=14;strokeWidth=2;" vertex="1" parent="1">
          <mxGeometry x="-100" y="960" width="180" height="100" as="geometry" />
        </mxCell>
        <mxCell id="ltjWNyK10us-_BbBSjaA-76" value="" style="edgeStyle=orthogonalEdgeStyle;rounded=0;orthogonalLoop=1;jettySize=auto;html=1;" edge="1" parent="1" source="ltjWNyK10us-_BbBSjaA-72" target="ltjWNyK10us-_BbBSjaA-75">
          <mxGeometry relative="1" as="geometry" />
        </mxCell>
        <mxCell id="ltjWNyK10us-_BbBSjaA-72" value="use subpass_map_ to get the subpass indices for dst and src stage" style="whiteSpace=wrap;html=1;rounded=1;arcSize=14;strokeWidth=2;" vertex="1" parent="1">
          <mxGeometry x="180" y="980" width="120" height="60" as="geometry" />
        </mxCell>
        <mxCell id="ltjWNyK10us-_BbBSjaA-79" value="" style="edgeStyle=orthogonalEdgeStyle;rounded=0;orthogonalLoop=1;jettySize=auto;html=1;" edge="1" parent="1" source="ltjWNyK10us-_BbBSjaA-75" target="ltjWNyK10us-_BbBSjaA-78">
          <mxGeometry relative="1" as="geometry" />
        </mxCell>
        <mxCell id="ltjWNyK10us-_BbBSjaA-75" value="make the VkSubpassDependency" style="whiteSpace=wrap;html=1;rounded=1;arcSize=14;strokeWidth=2;" vertex="1" parent="1">
          <mxGeometry x="380" y="980" width="170" height="60" as="geometry" />
        </mxCell>
        <mxCell id="ltjWNyK10us-_BbBSjaA-78" value="store in subpass_dependencies_" style="whiteSpace=wrap;html=1;rounded=1;arcSize=14;strokeWidth=2;" vertex="1" parent="1">
          <mxGeometry x="655" y="980" width="155" height="60" as="geometry" />
        </mxCell>
      </root>
    </mxGraphModel>
  </diagram>
  <diagram id="k5X8lkTYLUGQEpypldDz" name="Renderer">
    <mxGraphModel dx="1674" dy="836" grid="1" gridSize="10" guides="1" tooltips="1" connect="1" arrows="1" fold="1" page="1" pageScale="1" pageWidth="850" pageHeight="1100" math="0" shadow="0">
      <root>
        <mxCell id="0" />
        <mxCell id="1" parent="0" />
        <mxCell id="yo7Z20nBO5FuPgRrJsHd-1" value="Renderer" style="swimlane;fontStyle=1;align=center;verticalAlign=top;childLayout=stackLayout;horizontal=1;startSize=26;horizontalStack=0;resizeParent=1;resizeParentMax=0;resizeLast=0;collapsible=1;marginBottom=0;whiteSpace=wrap;html=1;" vertex="1" parent="1">
          <mxGeometry x="90" y="190" width="400" height="138" as="geometry" />
        </mxCell>
        <mxCell id="yo7Z20nBO5FuPgRrJsHd-2" value="- render_pass_: RenderPass" style="text;strokeColor=none;fillColor=none;align=left;verticalAlign=top;spacingLeft=4;spacingRight=4;overflow=hidden;rotatable=0;points=[[0,0.5],[1,0.5]];portConstraint=eastwest;whiteSpace=wrap;html=1;" vertex="1" parent="yo7Z20nBO5FuPgRrJsHd-1">
          <mxGeometry y="26" width="400" height="26" as="geometry" />
        </mxCell>
        <mxCell id="yo7Z20nBO5FuPgRrJsHd-5" value="- framebuffers_: std::vector&amp;lt;std::unique&amp;lt;Framebuffer&amp;gt;&amp;gt;" style="text;strokeColor=none;fillColor=none;align=left;verticalAlign=top;spacingLeft=4;spacingRight=4;overflow=hidden;rotatable=0;points=[[0,0.5],[1,0.5]];portConstraint=eastwest;whiteSpace=wrap;html=1;" vertex="1" parent="yo7Z20nBO5FuPgRrJsHd-1">
          <mxGeometry y="52" width="400" height="26" as="geometry" />
        </mxCell>
        <mxCell id="yo7Z20nBO5FuPgRrJsHd-7" value="- pipelines_: std::vector&amp;lt;GraphicsPipeline&amp;gt;" style="text;strokeColor=none;fillColor=none;align=left;verticalAlign=top;spacingLeft=4;spacingRight=4;overflow=hidden;rotatable=0;points=[[0,0.5],[1,0.5]];portConstraint=eastwest;whiteSpace=wrap;html=1;" vertex="1" parent="yo7Z20nBO5FuPgRrJsHd-1">
          <mxGeometry y="78" width="400" height="26" as="geometry" />
        </mxCell>
        <mxCell id="yo7Z20nBO5FuPgRrJsHd-3" value="" style="line;strokeWidth=1;fillColor=none;align=left;verticalAlign=middle;spacingTop=-1;spacingLeft=3;spacingRight=3;rotatable=0;labelPosition=right;points=[];portConstraint=eastwest;strokeColor=inherit;" vertex="1" parent="yo7Z20nBO5FuPgRrJsHd-1">
          <mxGeometry y="104" width="400" height="8" as="geometry" />
        </mxCell>
        <mxCell id="yo7Z20nBO5FuPgRrJsHd-4" value="+ method(type): type" style="text;strokeColor=none;fillColor=none;align=left;verticalAlign=top;spacingLeft=4;spacingRight=4;overflow=hidden;rotatable=0;points=[[0,0.5],[1,0.5]];portConstraint=eastwest;whiteSpace=wrap;html=1;" vertex="1" parent="yo7Z20nBO5FuPgRrJsHd-1">
          <mxGeometry y="112" width="400" height="26" as="geometry" />
        </mxCell>
        <mxCell id="yo7Z20nBO5FuPgRrJsHd-12" value="" style="endArrow=open;endFill=1;endSize=12;html=1;rounded=0;edgeStyle=orthogonalEdgeStyle;" edge="1" parent="1" source="yo7Z20nBO5FuPgRrJsHd-5" target="yo7Z20nBO5FuPgRrJsHd-13">
          <mxGeometry width="160" relative="1" as="geometry">
            <mxPoint x="480" y="340" as="sourcePoint" />
            <mxPoint x="600" y="260" as="targetPoint" />
          </mxGeometry>
        </mxCell>
        <mxCell id="yo7Z20nBO5FuPgRrJsHd-13" value="1 for each swapchain image view" style="text;html=1;align=center;verticalAlign=middle;whiteSpace=wrap;rounded=0;" vertex="1" parent="1">
          <mxGeometry x="580" y="190" width="120" height="30" as="geometry" />
        </mxCell>
        <mxCell id="yo7Z20nBO5FuPgRrJsHd-14" value="" style="endArrow=open;endFill=1;endSize=12;html=1;rounded=0;edgeStyle=orthogonalEdgeStyle;" edge="1" parent="1" source="yo7Z20nBO5FuPgRrJsHd-7" target="yo7Z20nBO5FuPgRrJsHd-15">
          <mxGeometry width="160" relative="1" as="geometry">
            <mxPoint x="550" y="400" as="sourcePoint" />
            <mxPoint x="580" y="281" as="targetPoint" />
          </mxGeometry>
        </mxCell>
        <mxCell id="yo7Z20nBO5FuPgRrJsHd-15" value="1 for each subpass (subpass 0 uses pipelines_[0])" style="text;html=1;align=center;verticalAlign=middle;whiteSpace=wrap;rounded=0;" vertex="1" parent="1">
          <mxGeometry x="565" y="328" width="150" height="52" as="geometry" />
        </mxCell>
      </root>
    </mxGraphModel>
  </diagram>
  <diagram id="3_ojuAFpjyLjrabA670V" name="GraphicsPipelineBuilder">
    <mxGraphModel dx="1674" dy="836" grid="1" gridSize="10" guides="1" tooltips="1" connect="1" arrows="1" fold="1" page="1" pageScale="1" pageWidth="850" pageHeight="1100" math="0" shadow="0">
      <root>
        <mxCell id="0" />
        <mxCell id="1" parent="0" />
        <mxCell id="d1BAkB-NSH2lTYh41z9f-1" value="GraphicsPipelineBuilder" style="swimlane;fontStyle=1;align=center;verticalAlign=top;childLayout=stackLayout;horizontal=1;startSize=26;horizontalStack=0;resizeParent=1;resizeParentMax=0;resizeLast=0;collapsible=1;marginBottom=0;whiteSpace=wrap;html=1;" vertex="1" parent="1">
          <mxGeometry x="130" y="360" width="460" height="242" as="geometry" />
        </mxCell>
        <mxCell id="d1BAkB-NSH2lTYh41z9f-2" value="+ field: type" style="text;strokeColor=none;fillColor=none;align=left;verticalAlign=top;spacingLeft=4;spacingRight=4;overflow=hidden;rotatable=0;points=[[0,0.5],[1,0.5]];portConstraint=eastwest;whiteSpace=wrap;html=1;" vertex="1" parent="d1BAkB-NSH2lTYh41z9f-1">
          <mxGeometry y="26" width="460" height="26" as="geometry" />
        </mxCell>
        <mxCell id="d1BAkB-NSH2lTYh41z9f-3" value="" style="line;strokeWidth=1;fillColor=none;align=left;verticalAlign=middle;spacingTop=-1;spacingLeft=3;spacingRight=3;rotatable=0;labelPosition=right;points=[];portConstraint=eastwest;strokeColor=inherit;" vertex="1" parent="d1BAkB-NSH2lTYh41z9f-1">
          <mxGeometry y="52" width="460" height="8" as="geometry" />
        </mxCell>
        <mxCell id="d1BAkB-NSH2lTYh41z9f-4" value="+ add_shader_stage(VkShaderStageFlagBits, ShaderModule): void" style="text;strokeColor=none;fillColor=none;align=left;verticalAlign=top;spacingLeft=4;spacingRight=4;overflow=hidden;rotatable=0;points=[[0,0.5],[1,0.5]];portConstraint=eastwest;whiteSpace=wrap;html=1;" vertex="1" parent="d1BAkB-NSH2lTYh41z9f-1">
          <mxGeometry y="60" width="460" height="26" as="geometry" />
        </mxCell>
        <mxCell id="d1BAkB-NSH2lTYh41z9f-20" value="+ add_vertex_input_binding(VkVertexInputBindingDescription): void" style="text;strokeColor=none;fillColor=none;align=left;verticalAlign=top;spacingLeft=4;spacingRight=4;overflow=hidden;rotatable=0;points=[[0,0.5],[1,0.5]];portConstraint=eastwest;whiteSpace=wrap;html=1;" vertex="1" parent="d1BAkB-NSH2lTYh41z9f-1">
          <mxGeometry y="86" width="460" height="26" as="geometry" />
        </mxCell>
        <mxCell id="d1BAkB-NSH2lTYh41z9f-21" value="+ add_vertex_attribute_description(VkVertexInputAttributeDescription): void" style="text;strokeColor=none;fillColor=none;align=left;verticalAlign=top;spacingLeft=4;spacingRight=4;overflow=hidden;rotatable=0;points=[[0,0.5],[1,0.5]];portConstraint=eastwest;whiteSpace=wrap;html=1;" vertex="1" parent="d1BAkB-NSH2lTYh41z9f-1">
          <mxGeometry y="112" width="460" height="26" as="geometry" />
        </mxCell>
        <mxCell id="d1BAkB-NSH2lTYh41z9f-23" value="+ set_primitive_topology(VkPrimitiveTopology): void" style="text;strokeColor=none;fillColor=none;align=left;verticalAlign=top;spacingLeft=4;spacingRight=4;overflow=hidden;rotatable=0;points=[[0,0.5],[1,0.5]];portConstraint=eastwest;whiteSpace=wrap;html=1;" vertex="1" parent="d1BAkB-NSH2lTYh41z9f-1">
          <mxGeometry y="138" width="460" height="26" as="geometry" />
        </mxCell>
        <mxCell id="d1BAkB-NSH2lTYh41z9f-9" value="+ set_rasterization_state(RasterizationSettings): void" style="text;strokeColor=none;fillColor=none;align=left;verticalAlign=top;spacingLeft=4;spacingRight=4;overflow=hidden;rotatable=0;points=[[0,0.5],[1,0.5]];portConstraint=eastwest;whiteSpace=wrap;html=1;" vertex="1" parent="d1BAkB-NSH2lTYh41z9f-1">
          <mxGeometry y="164" width="460" height="26" as="geometry" />
        </mxCell>
        <mxCell id="d1BAkB-NSH2lTYh41z9f-13" value="+ set_dynamic_state(std::vector&amp;lt;VkDynamicState&amp;gt;): void" style="text;strokeColor=none;fillColor=none;align=left;verticalAlign=top;spacingLeft=4;spacingRight=4;overflow=hidden;rotatable=0;points=[[0,0.5],[1,0.5]];portConstraint=eastwest;whiteSpace=wrap;html=1;" vertex="1" parent="d1BAkB-NSH2lTYh41z9f-1">
          <mxGeometry y="190" width="460" height="26" as="geometry" />
        </mxCell>
        <mxCell id="d1BAkB-NSH2lTYh41z9f-34" value="+ build(): GraphicsPipeline" style="text;strokeColor=none;fillColor=none;align=left;verticalAlign=top;spacingLeft=4;spacingRight=4;overflow=hidden;rotatable=0;points=[[0,0.5],[1,0.5]];portConstraint=eastwest;whiteSpace=wrap;html=1;" vertex="1" parent="d1BAkB-NSH2lTYh41z9f-1">
          <mxGeometry y="216" width="460" height="26" as="geometry" />
        </mxCell>
        <mxCell id="d1BAkB-NSH2lTYh41z9f-22" value="used in VkPipelineInputVertexStateCreateInfo" style="rounded=1;whiteSpace=wrap;html=1;absoluteArcSize=1;arcSize=14;strokeWidth=2;" vertex="1" parent="1">
          <mxGeometry x="870" y="404" width="280" height="90" as="geometry" />
        </mxCell>
        <mxCell id="d1BAkB-NSH2lTYh41z9f-24" value="" style="endArrow=open;endFill=1;endSize=12;html=1;rounded=0;" edge="1" parent="1" source="d1BAkB-NSH2lTYh41z9f-20" target="d1BAkB-NSH2lTYh41z9f-22">
          <mxGeometry width="160" relative="1" as="geometry">
            <mxPoint x="730" y="520" as="sourcePoint" />
            <mxPoint x="890" y="520" as="targetPoint" />
          </mxGeometry>
        </mxCell>
        <mxCell id="d1BAkB-NSH2lTYh41z9f-25" value="" style="endArrow=open;endFill=1;endSize=12;html=1;rounded=0;" edge="1" parent="1" source="d1BAkB-NSH2lTYh41z9f-21" target="d1BAkB-NSH2lTYh41z9f-22">
          <mxGeometry width="160" relative="1" as="geometry">
            <mxPoint x="710" y="590" as="sourcePoint" />
            <mxPoint x="870" y="590" as="targetPoint" />
          </mxGeometry>
        </mxCell>
        <mxCell id="d1BAkB-NSH2lTYh41z9f-27" value="" style="endArrow=open;endFill=1;endSize=12;html=1;rounded=0;edgeStyle=orthogonalEdgeStyle;" edge="1" parent="1" source="d1BAkB-NSH2lTYh41z9f-23" target="d1BAkB-NSH2lTYh41z9f-28">
          <mxGeometry width="160" relative="1" as="geometry">
            <mxPoint x="830" y="600" as="sourcePoint" />
            <mxPoint x="870" y="560" as="targetPoint" />
          </mxGeometry>
        </mxCell>
        <mxCell id="d1BAkB-NSH2lTYh41z9f-28" value="used in VkPipelineInputAssemblyStateCreateInfo" style="rounded=1;whiteSpace=wrap;html=1;absoluteArcSize=1;arcSize=14;strokeWidth=2;" vertex="1" parent="1">
          <mxGeometry x="860" y="514" width="280" height="50" as="geometry" />
        </mxCell>
        <mxCell id="d1BAkB-NSH2lTYh41z9f-29" value="RasterizationSettings" style="swimlane;fontStyle=0;childLayout=stackLayout;horizontal=1;startSize=26;fillColor=none;horizontalStack=0;resizeParent=1;resizeParentMax=0;resizeLast=0;collapsible=1;marginBottom=0;whiteSpace=wrap;html=1;" vertex="1" parent="1">
          <mxGeometry x="870" y="590" width="250" height="104" as="geometry" />
        </mxCell>
        <mxCell id="d1BAkB-NSH2lTYh41z9f-30" value="+ polygon_mode: VkPolygonMode" style="text;strokeColor=none;fillColor=none;align=left;verticalAlign=top;spacingLeft=4;spacingRight=4;overflow=hidden;rotatable=0;points=[[0,0.5],[1,0.5]];portConstraint=eastwest;whiteSpace=wrap;html=1;" vertex="1" parent="d1BAkB-NSH2lTYh41z9f-29">
          <mxGeometry y="26" width="250" height="26" as="geometry" />
        </mxCell>
        <mxCell id="d1BAkB-NSH2lTYh41z9f-31" value="+ cull_mode: VkCullModeFlags" style="text;strokeColor=none;fillColor=none;align=left;verticalAlign=top;spacingLeft=4;spacingRight=4;overflow=hidden;rotatable=0;points=[[0,0.5],[1,0.5]];portConstraint=eastwest;whiteSpace=wrap;html=1;" vertex="1" parent="d1BAkB-NSH2lTYh41z9f-29">
          <mxGeometry y="52" width="250" height="26" as="geometry" />
        </mxCell>
        <mxCell id="d1BAkB-NSH2lTYh41z9f-32" value="+ front_face: VkFrontFace" style="text;strokeColor=none;fillColor=none;align=left;verticalAlign=top;spacingLeft=4;spacingRight=4;overflow=hidden;rotatable=0;points=[[0,0.5],[1,0.5]];portConstraint=eastwest;whiteSpace=wrap;html=1;" vertex="1" parent="d1BAkB-NSH2lTYh41z9f-29">
          <mxGeometry y="78" width="250" height="26" as="geometry" />
        </mxCell>
        <mxCell id="d1BAkB-NSH2lTYh41z9f-33" value="" style="endArrow=open;endFill=1;endSize=12;html=1;rounded=0;edgeStyle=orthogonalEdgeStyle;" edge="1" parent="1" source="d1BAkB-NSH2lTYh41z9f-9" target="d1BAkB-NSH2lTYh41z9f-29">
          <mxGeometry width="160" relative="1" as="geometry">
            <mxPoint x="770" y="590" as="sourcePoint" />
            <mxPoint x="930" y="590" as="targetPoint" />
            <Array as="points">
              <mxPoint x="690" y="527" />
              <mxPoint x="690" y="600" />
              <mxPoint x="985" y="600" />
            </Array>
          </mxGeometry>
        </mxCell>
      </root>
    </mxGraphModel>
  </diagram>
</mxfile>
